<?xml version="1.0" encoding="UTF-8" standalone="no"?>
<!-- Created with Inkscape (http://www.inkscape.org/) -->

<svg
   width="530.89758"
   height="530.89758"
   viewBox="0 0 140.46665 140.46666"
   version="1.1"
   id="svg8"
   inkscape:version="1.3 (0e150ed6c4, 2023-07-21)"
   sodipodi:docname="icon-path.inkscape.svg"
   inkscape:export-filename="/home/rdex/Workspace/github/obin.ch/src/assets/favicon.png"
   inkscape:export-xdpi="92.580002"
   inkscape:export-ydpi="92.580002"
   xmlns:inkscape="http://www.inkscape.org/namespaces/inkscape"
   xmlns:sodipodi="http://sodipodi.sourceforge.net/DTD/sodipodi-0.dtd"
   xmlns="http://www.w3.org/2000/svg"
   xmlns:svg="http://www.w3.org/2000/svg"
   xmlns:rdf="http://www.w3.org/1999/02/22-rdf-syntax-ns#"
   xmlns:cc="http://creativecommons.org/ns#"
   xmlns:dc="http://purl.org/dc/elements/1.1/">
  <sodipodi:namedview
     id="base"
     pagecolor="#ffffff"
     bordercolor="#666666"
     borderopacity="1.0"
     inkscape:pageopacity="0.0"
     inkscape:pageshadow="2"
     inkscape:zoom="0.98994949"
     inkscape:cx="221.22341"
     inkscape:cy="254.55844"
     inkscape:document-units="mm"
     inkscape:current-layer="layer1"
     showgrid="false"
     units="px"
     inkscape:window-width="2300"
     inkscape:window-height="1216"
     inkscape:window-x="26"
     inkscape:window-y="23"
     inkscape:window-maximized="0"
     inkscape:snap-page="true"
     inkscape:showpageshadow="2"
     inkscape:pagecheckerboard="0"
     inkscape:deskcolor="#d1d1d1"
     showguides="true">
    <sodipodi:guide
       position="2.5,21.537261"
       orientation="0,-1"
       id="guide1"
       inkscape:locked="false" />
  </sodipodi:namedview>
  <defs
     id="defs2" />
  <metadata
     id="metadata5">
    <rdf:RDF>
      <cc:Work
         rdf:about="">
        <dc:format>image/svg+xml</dc:format>
        <dc:type
           rdf:resource="http://purl.org/dc/dcmitype/StillImage" />
      </cc:Work>
    </rdf:RDF>
  </metadata>
  <g
     inkscape:label="Layer 1"
     inkscape:groupmode="layer"
     id="layer1">
    <rect
       style="fill:#6a4a3c;fill-opacity:1;stroke:#ffffff;stroke-width:5;stroke-linecap:butt;stroke-linejoin:round;stroke-miterlimit:4;stroke-dasharray:none;stroke-dashoffset:0;stroke-opacity:1"
       id="rect4537"
       width="135.46666"
       height="135.46666"
       x="0"
       y="161.53333"
       ry="25.4"
       transform="translate(2.5, -159.033)" />
    <path
       style="font-size:170.926px;line-height:1.25;font-family:'Noto Sans';-inkscape-font-specification:'Noto Sans';letter-spacing:19.6233px;word-spacing:0px;fill:#ffffff"
       d="M 71.6987 38.4304 C 73.0814 38.4304 74.5564 38.5226 76.1235 38.707 C 77.7829 38.7991 79.2117 38.9835 80.4101 39.2601 L 78.8891 50.4605 C 77.6907 50.184 76.354 49.9535 74.879 49.7691 C 73.4963 49.5848 72.1596 49.4926 70.869 49.4926 C 67.0894 49.4926 63.5403 50.5527 60.2217 52.673 C 56.903 54.701 54.2296 57.6048 52.2016 61.3844 C 50.2657 65.0718 49.2978 69.4045 49.2978 74.3825 L 49.2978 113.93 L 37.1294 113.93 L 37.1294 39.8132 L 48.1436 39.8132 L 48.4681 53.3643 L 49.0212 53.3643 C 51.418 49.3082 54.5062 45.8052 58.2858 42.8553 C 62.0654 39.9054 66.5363 38.4304 71.6987 38.4304 Z M 86.191 105.933 C 86.191 102.522 87.0206 100.126 88.68 98.7432 C 90.3393 97.3604 92.3213 96.669 94.6259 96.669 C 97.0227 96.669 99.0508 97.3604 100.71 98.7432 C 102.462 100.126 103.337 102.522 103.337 105.933 C 103.337 109.252 102.462 111.649 100.71 113.124 C 99.0508 114.599 97.0227 115.337 94.6259 115.337 C 92.3213 115.337 90.3393 114.599 88.68 113.124 C 87.0206 111.65 86.191 109.252 86.191 105.933 Z"
       id="flowRoot4539"
       aria-label="r." />
  </g>
</svg>
