<svg width="530.9" height="530.9" version="1.1" viewBox="0 0 140.47 140.47" xmlns="http://www.w3.org/2000/svg">
 <rect transform="translate(2.5 -159.03)" y="161.53" width="135.47" height="135.47" ry="25.4" style="fill:#6a4a3c;stroke-linejoin:round;stroke-width:5;stroke:#fff"/>
 <path d="m71.699 38.43c1.3827 0 2.8577 0.0922 4.4248 0.2766 1.6594 0.0921 3.0882 0.2765 4.2866 0.5531l-1.521 11.2c-1.1984-0.2765-2.5351-0.507-4.0101-0.6914-1.3827-0.1843-2.7194-0.2765-4.01-0.2765-3.7796 0-7.3287 1.0601-10.647 3.1804-3.3187 2.028-5.9921 4.9318-8.0201 8.7114-1.9359 3.6874-2.9038 8.0201-2.9038 12.998v39.548h-12.168v-74.117h11.014l0.3245 13.551h0.5531c2.3968-4.0561 5.485-7.5591 9.2646-10.509s8.2505-4.4249 13.413-4.4249zm14.492 67.503c0-3.411 0.8296-5.807 2.489-7.1898 1.6593-1.3828 3.6413-2.0742 5.9459-2.0742 2.3968 0 4.4249 0.6914 6.0841 2.0742 1.752 1.3828 2.627 3.7788 2.627 7.1898 0 3.319-0.875 5.716-2.627 7.191-1.6592 1.475-3.6873 2.213-6.0841 2.213-2.3046 0-4.2866-0.738-5.9459-2.213-1.6594-1.474-2.489-3.872-2.489-7.191z" style="fill:#fff" aria-label="r."/>
</svg>
