<?xml version="1.0" encoding="UTF-8" standalone="no"?>
<!-- Created with Inkscape (http://www.inkscape.org/) -->

<svg
   xmlns:dc="http://purl.org/dc/elements/1.1/"
   xmlns:cc="http://creativecommons.org/ns#"
   xmlns:rdf="http://www.w3.org/1999/02/22-rdf-syntax-ns#"
   xmlns:svg="http://www.w3.org/2000/svg"
   xmlns="http://www.w3.org/2000/svg"
   xmlns:sodipodi="http://sodipodi.sourceforge.net/DTD/sodipodi-0.dtd"
   xmlns:inkscape="http://www.inkscape.org/namespaces/inkscape"
   width="297mm"
   height="210mm"
   viewBox="0 0 297 210"
   version="1.1"
   id="svg4649"
   inkscape:version="0.92.4 5da689c313, 2019-01-14"
   sodipodi:docname="welcome.inkscape.svg">
  <defs
     id="defs4643" />
  <sodipodi:namedview
     id="base"
     pagecolor="#ffffff"
     bordercolor="#666666"
     borderopacity="1.0"
     inkscape:pageopacity="0.0"
     inkscape:pageshadow="2"
     inkscape:zoom="0.7"
     inkscape:cx="680.81667"
     inkscape:cy="435.04407"
     inkscape:document-units="mm"
     inkscape:current-layer="layer1"
     showgrid="false"
     inkscape:snap-global="false"
     inkscape:window-width="1900"
     inkscape:window-height="956"
     inkscape:window-x="354"
     inkscape:window-y="522"
     inkscape:window-maximized="0" />
  <metadata
     id="metadata4646">
    <rdf:RDF>
      <cc:Work
         rdf:about="">
        <dc:format>image/svg+xml</dc:format>
        <dc:type
           rdf:resource="http://purl.org/dc/dcmitype/StillImage" />
        <dc:title></dc:title>
      </cc:Work>
    </rdf:RDF>
  </metadata>
  <g
     inkscape:label="Layer 1"
     inkscape:groupmode="layer"
     id="layer1"
     transform="translate(0,-87)">
    <path
       inkscape:connector-curvature="0"
       style="fill:#f2f2f2;stroke-width:0.20127219"
       d="M 244.98329,151.13748 C 215.7419,116.75752 153.97087,102.81152 93.221043,117.83169 c -32.11661,7.94072 -63.082944,23.85112 -78.429106,54.6588 -27.432916,55.07204 30.165954,72.66071 67.829349,78.26644 18.211974,2.71062 35.364574,7.26387 51.038764,13.46313 28.19929,11.15302 78.11398,21.03578 115.75296,-25.42174 27.28077,-33.67247 15.04793,-64.76039 -4.42972,-87.66084 z"
       id="path4" />
    <path
       inkscape:connector-curvature="0"
       style="fill:#e6e6e6;stroke-width:0.18594866"
       d="m 88.916497,150.64898 a 6.3939209,6.3939209 0 0 0 -0.417937,-1.60001 0.72424396,0.72424396 0 0 0 -0.368197,-0.45348 0.75869098,0.75869098 0 0 0 -0.36534,-0.004 l -1.875717,0.28701 a 0.71903742,0.71903742 0 0 0 -0.427966,0.16629 c -0.244303,0.25693 -0.0037,0.67063 -0.01121,1.02508 -0.0084,0.39859 -0.362552,0.72211 -0.746584,0.82915 a 2.8222005,2.8222005 0 0 1 -1.186293,-0.0147 l -2.622806,-0.40758 a 4.3244425,4.3244425 0 0 0 1.984179,-1.32409 c 0.345154,-0.40888 0.52878,-1.17225 0.02995,-1.36588 a 1.2245444,1.2245444 0 0 0 -0.455555,-0.0366 c -1.188314,0.009 -2.123419,-0.98292 -3.235879,-1.40079 a 3.5778177,3.5778177 0 0 0 -4.026651,1.20037 l 1.397199,0.0674 a 0.62016853,0.62016853 0 0 1 0.372171,0.0992 c 0.306201,0.25158 -0.07448,0.73481 -0.03135,1.12875 0.05605,0.51182 0.735624,0.62111 1.247902,0.67286 0.512277,0.0517 1.16216,0.46797 0.915744,0.92006 -2.574764,0.88686 -5.194866,-1.73362 -7.898913,-1.41105 -0.684378,0.0816 -1.330618,0.3505 -1.998795,0.51955 -4.081711,1.03273 -8.301475,-1.7227 -12.47117,-1.13915 a 15.83591,15.83591 0 0 0 -2.722364,0.71799 c -0.567502,0.18634 -1.159444,0.3877 -1.571787,0.81985 -0.412343,0.43214 -0.569278,1.17119 -0.178646,1.62306 a 9.1348528,9.1348528 0 0 1 -3.20125,-0.3043 1.7934748,1.7934748 0 0 1 0.92206,1.58062 18.993791,18.993791 0 0 0 -4.865767,1.48364 8.1953931,8.1953931 0 0 0 1.007098,1.34158 l -2.128243,1.36724 c 0.719023,0.18116 1.090775,1.16161 0.672638,1.77395 0.745545,-0.33167 1.207597,-1.18968 2.004833,-1.36363 0.522297,-0.11396 1.053745,0.0997 1.549222,0.30041 0.495477,0.20071 1.040056,0.39533 1.55298,0.2447 0.512925,-0.15064 0.891252,-0.81573 0.565325,-1.23947 a 26.538422,26.538422 0 0 1 6.741143,-1.05319 0.84542491,0.84542491 0 0 1 0.510541,0.0969 c 0.297192,0.20619 0.218999,0.65153 0.20299,1.01288 -0.01601,0.36136 0.26563,0.83628 0.588593,0.6734 -0.379968,0.32948 -0.05514,0.94976 0.309394,1.29624 0.36454,0.34647 0.803914,0.82456 0.580735,1.27525 -0.05825,0.11763 -0.157043,0.21175 -0.213088,0.33044 -0.165429,0.35036 0.09723,0.75882 0.407041,0.99148 0.309811,0.23266 0.689298,0.39528 0.904507,0.71746 0.21521,0.32219 0.117478,0.88613 -0.267351,0.93112 l -1.093818,-1.38879 a 2.8475341,2.8475341 0 0 0 -0.738893,1.40024 c 1.159902,0.94819 1.334368,2.87815 0.363307,4.01898 -0.496237,0.58299 -1.201923,0.93724 -1.817834,1.39198 -0.61591,0.45473 -1.185825,1.10227 -1.184276,1.86785 0.0027,1.32268 -0.105397,2.55149 0.39024,3.77779 a 58.195608,58.195608 0 0 0 3.159352,6.5914 c 0.312549,0.55899 0.716489,1.17167 1.349652,1.26792 q -1.20029,-2.92204 -2.160997,-5.93499 c 0.417156,0.001 0.899225,0.0348 1.14377,0.37271 0.202498,0.27985 0.158999,0.66035 0.221921,1.00001 a 3.0977336,3.0977336 0 0 0 0.39504,0.92868 l 3.821152,6.80662 c 0.316767,0.56426 0.680118,1.16993 1.285523,1.39844 0.387067,0.1461 0.834885,0.11857 1.19115,0.32891 0.27925,0.16487 0.467331,0.45752 0.752011,0.61282 0.804944,0.43911 1.924301,-0.40304 2.676545,0.12124 0.215089,0.14991 0.351923,0.38806 0.550111,0.55969 0.69476,0.60166 1.834458,0.19916 2.636484,0.64799 0.516893,0.28926 0.784776,0.86776 1.060477,1.39201 0.6906,1.31318 1.808029,2.59971 3.28805,2.70428 0.464903,0.0328 0.939784,-0.0553 1.394224,0.0481 0.45444,0.10341 0.901788,0.50001 0.82884,0.96033 -0.125059,0.78916 0.264849,1.65329 0.160132,2.44541 -0.190745,1.44287 -2.237355,2.07693 -2.413151,3.5217 -0.03849,0.31633 0.02176,0.64284 -0.05357,0.95248 -0.09232,0.37949 -0.37732,0.68847 -0.478593,1.06568 -0.191919,0.71482 0.320217,1.42622 0.882827,1.90713 0.56261,0.48091 1.233702,0.8956 1.541287,1.56881 0.325111,0.71155 0.165419,1.54123 0.27115,2.31636 0.230826,1.6922 1.692425,2.94668 3.196611,3.75555 0.458294,0.24645 0.950372,0.48504 1.246999,0.91257 0.387162,0.55801 0.348593,1.29364 0.477873,1.9604 0.316617,1.63292 1.691253,2.97838 1.730284,4.64124 0.02774,1.18192 -0.62925,2.25415 -1.02171,3.36935 a 7.8576044,7.8576044 0 0 0 0.641644,6.51668 c 0.293587,0.49574 0.644725,0.96313 0.85241,1.50055 0.370614,0.95904 0.250359,2.04924 0.592075,3.01896 0.451779,1.28204 1.693177,2.34097 1.574364,3.69508 0.563592,1.17038 1.808107,1.74543 3.05953,2.09378 l 2.242835,0.62433 c 0.429446,0.11953 0.8782,0.24003 1.31549,0.15347 0.43729,-0.0865 0.85462,-0.44966 0.843331,-0.8953 -1.099855,-0.24804 -2.234984,-0.5118 -3.141633,-1.18202 -0.906648,-0.67022 -1.527718,-1.86371 -1.18372,-2.93743 0.159508,-0.49788 0.498858,-1.07282 0.17623,-1.4842 -0.184727,-0.23555 -0.522515,-0.29709 -0.730873,-0.51201 -0.324991,-0.3352 -0.213336,-0.89831 0.0203,-1.30253 0.233639,-0.40421 0.57134,-0.76544 0.665578,-1.22271 a 1.2757752,1.2757752 0 0 0 -0.59798,-1.32729 3.1712316,3.1712316 0 0 0 1.110113,-0.71229 c 0.291939,-0.33339 0.426791,-0.84737 0.197141,-1.22636 0.681972,0.0865 1.48711,0.12885 1.934786,-0.39284 0.357488,-0.41658 0.332934,-1.03939 0.19168,-1.56986 -0.141254,-0.53046 -0.380006,-1.04569 -0.387445,-1.59459 a 29.057563,29.057563 0 0 0 4.714355,-0.15985 3.0568639,3.0568639 0 0 0 -1.43332,-1.79507 c 0.70858,-0.11989 1.3541,-0.96819 1.57796,-1.65107 0.22387,-0.68289 0.16677,-1.42673 0.0284,-2.13193 a 1.1439375,1.1439375 0 0 1 -0.0212,-0.55853 c 0.0798,-0.25429 0.3296,-0.40947 0.5607,-0.54218 l 3.517106,-2.01991 a 2.0486745,2.0486745 0 0 0 0.56242,-0.4152 c 0.36849,-0.43284 0.3139,-1.08622 0.12523,-1.62244 -0.18868,-0.53621 -0.49091,-1.04044 -0.56358,-1.60422 -0.21738,-1.6861 1.58755,-2.89587 2.19669,-4.48306 0.23905,-0.62286 0.28777,-1.29991 0.33403,-1.96547 0.0497,-0.71484 0.0534,-1.54516 -0.49549,-2.00582 -0.52614,-0.44157 -1.34823,-0.34307 -1.89877,-0.75381 -0.50476,-0.37658 -0.6789,-1.10794 -1.23032,-1.41211 -0.50077,-0.27623 -1.12863,-0.10055 -1.68558,-0.23046 -0.980626,-0.22874 -1.597736,-1.35895 -2.599236,-1.46359 -0.56506,-0.059 -1.20459,0.2172 -1.667714,-0.11189 -0.408085,-0.28997 -0.424439,-0.8728 -0.502119,-1.36735 a 3.8186194,3.8186194 0 0 0 -3.082041,-3.09197 c -0.582613,-0.0934 -1.21678,-0.058 -1.712418,-0.37812 -0.501875,-0.3242 -0.731991,-0.93118 -1.126216,-1.38016 -0.635371,-0.72361 -1.636055,-0.98069 -2.573464,-1.20107 l -3.812971,-0.89637 c -0.676876,-0.15912 -1.549364,-0.2435 -1.912594,0.34941 a 2.7405262,2.7405262 0 0 0 -0.226244,0.71157 2.2035771,2.2035771 0 0 1 -2.072279,1.55977 2.4506322,2.4506322 0 0 0 -1.445106,-1.11816 c -0.386642,-0.10775 -0.800495,-0.11973 -1.169246,-0.27826 a 1.6424232,1.6424232 0 0 1 -0.712661,-2.27836 2.0444478,2.0444478 0 0 0 -0.349359,-2.45919 c -0.648438,-0.58214 -1.586423,-0.7228 -2.45589,-0.66455 -0.227721,-0.49689 0.153035,-1.0575 0.563342,-1.41859 0.410307,-0.36109 0.908545,-0.71608 0.997891,-1.25531 0.140556,-0.84819 -0.941697,-1.49242 -1.763421,-1.23951 -0.821724,0.25291 -1.346196,1.05106 -1.69289,1.83782 -0.19892,0.45141 -0.368033,0.92677 -0.681807,1.30741 -0.313773,0.38063 -0.819068,0.65317 -1.297004,0.53102 -0.676623,-0.17294 -0.937944,-0.97682 -1.087694,-1.65894 -0.200918,-0.9152 -0.403005,-1.8431 -0.360906,-2.77914 0.0421,-0.93604 0.357655,-1.89715 1.047886,-2.53082 1.124762,-1.03259 2.850221,-0.93137 4.368179,-0.76665 -0.358629,-0.40406 -0.269998,-1.08504 0.113719,-1.46537 a 1.6660498,1.6660498 0 0 1 1.510059,-0.37098 2.0809719,2.0809719 0 0 1 1.169842,0.69945 c 0.431362,0.52591 0.554027,1.236 0.880075,1.83296 0.326048,0.59695 1.059193,1.10611 1.659272,0.78585 0.51831,-0.27663 0.600575,-0.99534 0.471577,-1.56851 -0.128998,-0.57317 -0.402977,-1.13052 -0.35625,-1.71617 0.08916,-1.11748 1.247552,-1.79013 2.269762,-2.25035 1.02221,-0.46022 2.192705,-1.07916 2.354651,-2.18843 a 1.9952142,1.9952142 0 0 1 0.121302,-0.63601 1.2475797,1.2475797 0 0 1 0.457686,-0.4304 c 2.98335,-1.97159 6.016315,-3.96725 9.426143,-5.04456 0.177395,-0.0561 0.198222,0.006 0.379014,-0.0377 0.253027,-0.14624 0.08537,-0.55079 -0.157223,-0.71376 -0.242595,-0.16297 -0.566852,-0.28795 -0.628399,-0.57364 -0.04524,-0.21001 0.07849,-0.41623 0.110639,-0.62864 0.07898,-0.52196 -0.54543,-1.00388 -1.030341,-0.7952 -0.273903,-0.36274 0.268071,-0.78423 0.706305,-0.90489 a 19.180632,19.180632 0 0 1 4.029583,-0.65825 0.72581155,0.72581155 0 0 1 0.45852,0.078 c 0.22889,0.15855 0.19965,0.5222 0.0374,0.74852 -0.16221,0.22631 -0.41454,0.3684 -0.61669,0.55989 a 1.6833207,1.6833207 0 0 0 -0.436628,1.69306 c 0.711438,0.36188 1.484898,0.73442 2.272848,0.60694 0.78796,-0.1275 1.487326,-1.01282 1.11696,-1.71989 -0.3449,-0.65845 -1.38091,-0.80695 -1.55906,-1.52859 -0.20859,-0.84491 0.98746,-1.59637 0.71804,-2.4239 -0.11802,-0.36248 -0.47926,-0.57581 -0.75646,-0.83751 a 2.2725232,2.2725232 0 0 1 -0.49731,-2.5199 2.8670513,2.8670513 0 0 1 -2.514518,-0.78688 c -0.601447,-0.60698 -1.081273,-1.56448 -1.935339,-1.53732 -0.783746,0.0249 -1.45881,0.93928 -2.191654,0.66032 -0.180292,-0.0687 -0.370384,-0.20831 -0.545073,-0.12647 a 0.45041414,0.45041414 0 0 0 -0.203321,0.3375 c -0.186234,0.8904 0.134141,1.90489 -0.351143,2.6743 -0.528081,0.83726 -1.749554,0.95334 -2.389751,1.70835 -0.347521,0.40985 -0.482164,0.9621 -0.801596,1.3942 -0.319432,0.43209 -0.997416,0.70681 -1.38076,0.33026 a 1.903125,1.903125 0 0 0 -0.517014,-2.31415 5.0781259,5.0781259 0 0 0 -1.141946,-0.55545 6.7725607,6.7725607 0 0 1 -1.275749,-0.71101 1.2566057,1.2566057 0 0 1 -0.468337,-0.50112 1.1419777,1.1419777 0 0 1 0.03203,-0.79246 3.2402614,3.2402614 0 0 1 2.578576,-2.13723 c 0.510406,-0.0694 1.104451,-0.045 1.442231,-0.43387 0.178726,-0.20577 0.272504,-0.51688 0.531928,-0.60045 a 0.78459738,0.78459738 0 0 1 0.491103,0.0605 l 1.905106,0.67057 a 1.3371121,1.3371121 0 0 0 0.678666,0.11224 0.46012624,0.46012624 0 0 0 0.397865,-0.48355 c -0.06087,-0.31637 -0.547684,-0.4682 -0.503387,-0.7873 a 0.52561549,0.52561549 0 0 1 0.159445,-0.26802 6.8110949,6.8110949 0 0 1 5.402051,-2.13325 c 0.240456,0.39492 -0.139834,0.86257 -0.456261,1.1997 -0.316427,0.33713 -0.570709,0.9395 -0.18804,1.199 a 1.0492227,1.0492227 0 0 0 0.507251,0.11424 4.429033,4.429033 0 0 1 1.350136,0.40952 q 0.987481,0.42973 1.937061,0.94039 c -0.0559,-0.4174 -0.10929,-0.85713 0.0489,-1.24741 0.15821,-0.39029 0.60786,-0.69641 1.0006,-0.54442 0.3785,0.14649 0.57262,0.64766 0.975866,0.69358 0.53792,0.0612 0.75014,-0.73343 0.52545,-1.22599 -0.2247,-0.49256 -0.6695,-0.90499 -0.70663,-1.44511 -0.025,-0.36438 0.11362,-0.81629 -0.177446,-1.03693 a 0.79223237,0.79223237 0 0 0 -0.34341,-0.12029 l -7.267593,-1.33737 c -0.431564,-0.0794 -1.0551,-0.0186 -1.074238,0.41985 -0.01069,0.24471 0.207903,0.48679 0.111089,0.71178 -0.10333,0.24014 -0.442781,0.21818 -0.690022,0.30311 -0.383623,0.13179 -0.576125,0.58731 -0.539281,0.99127 a 2.7583475,2.7583475 0 0 0 0.455203,1.11708 c -0.472716,-0.19769 -1.188485,-0.23403 -1.661201,-0.43172 z"
       id="path6" />
    <path
       inkscape:connector-curvature="0"
       style="fill:#e6e6e6;stroke-width:0.18594866"
       d="m 83.117675,144.47968 a 2.3534127,2.3534127 0 0 0 -2.585148,0.7742 c -0.119665,0.15757 -0.220163,0.37476 -0.119985,0.54538 0.14363,0.24459 0.5096,0.14798 0.779415,0.0605 a 1.9616151,1.9616151 0 0 1 1.231112,-0.0294 c 0.253357,0.087 0.480021,0.24072 0.734484,0.32442 a 0.73965914,0.73965914 0 0 0 0.754152,-0.11021 c 0.17464,-0.17811 0.185597,-0.45501 0.185906,-0.70446 a 0.56655395,0.56655395 0 0 0 -0.144371,-0.46565 0.74023002,0.74023002 0 0 0 -0.333876,-0.0987 1.1500051,1.1500051 0 0 1 -0.673039,-0.39325"
       id="path8" />
    <path
       inkscape:connector-curvature="0"
       style="fill:#e6e6e6;stroke-width:0.18594866"
       d="m 85.738215,143.75006 a 0.59867287,0.59867287 0 0 0 -0.578631,0.84316 2.4265667,2.4265667 0 0 0 0.967491,0.0631 0.8269416,0.8269416 0 0 0 0.676232,-0.62 1.5567882,1.5567882 0 0 1 -1.102283,-0.21052"
       id="path10" />
    <path
       inkscape:connector-curvature="0"
       style="fill:#e6e6e6;stroke-width:0.18594866"
       d="m 94.53045,142.53152 a 11.129637,11.129637 0 0 0 -2.480927,0.84277 1.8640219,1.8640219 0 0 1 1.190529,1.87222 0.9749437,0.9749437 0 0 0 0.01129,0.46289 c 0.09112,0.22089 0.355147,0.30378 0.587269,0.36048 a 3.871929,3.871929 0 0 0 1.288066,0.1644 1.3121263,1.3121263 0 0 0 1.066185,-0.65153 4.6435713,4.6435713 0 0 1 0.221719,-0.52412 c 0.556393,-0.84737 2.209293,0.17724 2.806673,-0.64177 0.21043,-0.2885 0.19118,-0.72278 0.46551,-0.95139 a 1.0457901,1.0457901 0 0 1 0.478536,-0.18263 33.606697,33.606697 0 0 1 3.635,-0.5177 c 0.57816,-0.0503 1.33175,-0.25791 1.33656,-0.83822 a 10.068885,10.068885 0 0 0 -6.422896,0.86405 c -0.71598,0.35861 -1.66294,1.11296 -2.352605,0.63753 -0.258227,-0.17801 -0.245441,-0.65735 -0.600848,-0.85752 -0.363363,-0.20465 -0.84435,-0.12141 -1.230067,-0.0395 z"
       id="path12" />
    <path
       inkscape:connector-curvature="0"
       style="fill:#e6e6e6;stroke-width:0.18594866"
       d="m 101.65211,143.86329 1.02224,0.19642 a 1.3246555,1.3246555 0 0 0 -1.37851,1.43554 c 0.95729,0.3198 2.00095,0.009 3.00934,0.0511 1.00839,0.0425 2.18166,0.76281 2.00953,1.75732 -0.0521,0.3007 -0.22577,0.6012 -0.13544,0.8927 0.0633,0.20431 0.24351,0.34928 0.34521,0.53745 0.21193,0.39211 0.0425,0.88807 -0.22506,1.24451 -0.26761,0.35643 -0.62731,0.64083 -0.86221,1.01963 -0.58423,0.94212 -0.2523,2.1601 0.0957,3.21262 a 2.8322491,2.8322491 0 0 0 0.5446,1.08758 c 0.51561,0.54821 1.35586,0.5959 2.10836,0.60688 0.54771,0.008 1.17513,-0.019 1.52149,-0.44342 0.45219,-0.55402 0.13599,-1.4184 0.43371,-2.06862 0.27038,-0.59052 0.95926,-0.84387 1.58339,-1.02354 1.14342,-0.32918 2.30868,-0.60903 3.38967,-1.10624 1.34229,-0.6174 2.59677,-1.57957 4.07213,-1.65905 0.4139,-0.0223 0.83807,0.0266 1.23677,-0.0868 0.39869,-0.11341 0.77742,-0.45811 0.74724,-0.87151 -0.0258,-0.35323 -0.32464,-0.61261 -0.55815,-0.87889 -0.23352,-0.26627 -0.4169,-0.67573 -0.20228,-0.95746 l 3.86709,-0.7223 c -0.27412,-0.74704 -0.48766,-1.73091 0.14223,-2.21717 0.22726,-0.17544 0.53156,-0.24556 0.72506,-0.45767 0.32981,-0.3615 0.16396,-0.98422 -0.21674,-1.29166 -0.38072,-0.30744 -0.89547,-0.37881 -1.38314,-0.41931 -1.69563,-0.14083 -3.401,-0.0478 -5.09991,0.0453 q -4.98153,0.27305 -9.96306,0.54611 c -0.66855,0.0366 -1.44043,-0.0193 -2.05359,0.20874 -0.51909,0.19309 -0.88817,0.54754 -1.48186,0.67207 -1.09598,0.2299 -2.30208,0.0743 -3.29383,0.68964 z"
       id="path14" />
    <path
       inkscape:connector-curvature="0"
       style="fill:#e6e6e6;stroke-width:0.18594866"
       d="m 119.96518,151.94336 a 0.41132959,0.41132959 0 0 0 -0.29755,0.0675 0.37565906,0.37565906 0 0 0 -0.0969,0.22944 1.5152027,1.5152027 0 0 0 0.22009,1.08451 1.0619807,1.0619807 0 0 0 0.97214,0.46608 c 0.46029,-0.0587 0.7995,-0.45138 1.22266,-0.643 0.65221,-0.29506 3.42199,-0.75504 1.506,-1.79017 -0.66029,-0.35674 -1.08695,-0.0418 -1.60736,0.1931 a 3.6574,3.6574 0 0 1 -1.91912,0.39256 z"
       id="path16" />
    <path
       inkscape:connector-curvature="0"
       style="fill:#e6e6e6;stroke-width:0.18594866"
       d="m 136.74701,143.27892 a 1.0939583,1.0939583 0 0 0 -0.53227,0.46332 0.46747493,0.46747493 0 0 0 0.17532,0.62014 0.69770726,0.69770726 0 0 0 0.26099,0.0414 l 0.90969,0.0272 c 0.38646,0.0115 0.86918,0.0939 0.97303,0.46627 0.0771,0.27653 -0.0955,0.63188 0.11276,0.82949 a 0.58661223,0.58661223 0 0 0 0.30946,0.1207 2.1088679,2.1088679 0 0 0 0.91659,0.0296 c 0.66189,-0.17754 0.3141,-0.58151 0.52257,-0.94122 0.31896,-0.55038 0.26374,-0.21721 0.82577,-0.53265 0.41505,-0.23294 0.9514,-0.65552 0.60497,-1.24925 -0.60244,-1.03248 -4.1899,-0.3185 -5.07888,0.12505 z"
       id="path18" />
    <path
       inkscape:connector-curvature="0"
       style="fill:#e6e6e6;stroke-width:0.18594866"
       d="m 154.702,142.75984 -0.52823,0.0705 c -1.19116,0.15896 -2.38909,0.31938 -3.53635,0.67709 a 5.885712,5.885712 0 0 0 1.54873,0.38003 4.7574165,4.7574165 0 0 1 0.86754,0.12332 c 0.50673,0.15085 1.01733,0.54039 1.50689,0.34084 0.30354,-0.12373 0.40259,-0.43978 0.65403,-0.60728 0.17363,-0.11566 0.83215,-0.30286 0.90577,-0.4196 0.59515,-0.94376 -0.9609,-0.62593 -1.41838,-0.56489 z"
       id="path20" />
    <path
       inkscape:connector-curvature="0"
       style="fill:#e6e6e6;stroke-width:0.18594866"
       d="m 157.02152,145.16063 a 9.9067275,9.9067275 0 0 0 -1.94933,1.42756 c -0.24819,0.23331 -0.50169,0.52348 -0.47918,0.86336 0.0299,0.45174 0.51112,0.71377 0.92802,0.89028 l 1.68865,0.71494 c 0.20485,-0.28873 0.0174,-0.6873 -0.19436,-0.97104 -0.21172,-0.28374 -0.46331,-0.61202 -0.36977,-0.95346 0.10674,-0.38965 0.58183,-0.52242 0.98022,-0.58955 0.6491,-0.10937 2.40011,-0.1006 2.18971,-1.14669 -0.2479,-1.23261 -2.14237,-0.5996 -2.79396,-0.2354 z"
       id="path22" />
    <path
       inkscape:connector-curvature="0"
       style="fill:#e6e6e6;stroke-width:0.18594866"
       d="m 156.68195,214.91503 c -0.16076,0.4654 -0.17601,1.01365 0.10207,1.41999 0.31204,0.45596 0.93651,0.62593 1.47679,0.5103 a 2.6603674,2.6603674 0 0 0 1.3711,-0.88155 4.7216325,4.7216325 0 0 0 0.78864,-1.2094 9.4400963,9.4400963 0 0 0 0.58455,-2.13884 l 0.5243,-2.75278 c 0.11716,-0.61523 0.11262,-2.50142 -1.01815,-1.88688 -0.3089,0.16789 -1.02413,1.4934 -1.34786,1.86928 -0.58347,0.67745 -0.66067,1.33478 -0.96782,2.15549 -0.38473,1.028 -1.15797,1.88475 -1.51362,2.91439 z"
       id="path24" />
    <path
       inkscape:connector-curvature="0"
       style="fill:#e6e6e6;stroke-width:0.18594866"
       d="m 216.40533,229.002 a 8.2435319,8.2435319 0 0 1 -1.0745,-0.51152 9.0570699,9.0570699 0 0 0 -0.54469,2.96865 l 2.53185,-1.43269 c 0.38087,-0.21552 0.81255,-0.51499 0.80436,-0.95253 a 0.30134282,0.30134282 0 0 0 -0.13997,-0.274 0.34133108,0.34133108 0 0 0 -0.17749,-0.0208 c -0.37543,0.0313 -0.71774,0.21602 -1.0719,0.34448 -0.35416,0.12846 -0.76828,0.19637 -1.09323,0.006"
       id="path26" />
    <path
       inkscape:connector-curvature="0"
       style="fill:#e6e6e6;stroke-width:0.18594866"
       d="m 229.76139,229.85257 a 5.4802789,5.4802789 0 0 0 -0.81195,0.29138 c -0.58101,0.29562 -0.97626,0.85713 -1.49912,1.24649 -0.50032,0.3726 -1.10262,0.57717 -1.69389,0.77608 -0.17392,0.15374 -0.094,0.46338 0.0948,0.59845 a 1.1743327,1.1743327 0 0 0 0.6687,0.1503 c 0.61426,0.0136 1.26142,0.0195 1.79947,-0.27721 a 5.67485,5.67485 0 0 0 0.84718,-0.67242 c 0.62908,-0.52489 1.38453,-0.8712 2.13236,-1.20588 a 2.4474562,2.4474562 0 0 0 0.74321,-0.44436 c 0.46992,-0.46297 0.50295,-1.17719 -0.17462,-1.33476 -0.54749,-0.12733 -1.58484,0.70328 -2.10614,0.87193 z"
       id="path28" />
    <path
       inkscape:connector-curvature="0"
       style="fill:#e6e6e6;stroke-width:0.18594866"
       d="m 235.66269,225.99777 a 2.1121034,2.1121034 0 0 0 -0.64623,-1.73055 c -0.007,0.63736 -0.0263,1.31637 -0.38475,1.84342 -0.25542,0.37553 -0.65588,0.62921 -0.93571,0.98691 -0.27983,0.35771 -0.40405,0.9247 -0.0758,1.23859 a 1.2300281,1.2300281 0 0 0 0.72896,0.25106 c 0.65338,0.0769 1.40965,0.11978 1.86791,-0.35225 0.25014,-0.25765 0.3718,-0.63925 0.67687,-0.82866 a 0.82347737,0.82347737 0 0 0 0.29696,-0.21251 c 0.12596,-0.20024 -0.0742,-0.46413 -0.29947,-0.53628 -0.2253,-0.0721 -0.47357,-0.0382 -0.69999,-0.10675 -0.22641,-0.0685 -0.43413,-0.32312 -0.31797,-0.52919"
       id="path30" />
    <path
       inkscape:connector-curvature="0"
       style="fill:#e6e6e6;stroke-width:0.18594866"
       d="m 225.17426,202.6294 a 2.9369939,2.9369939 0 0 1 -1.04799,0.0618 c -0.58166,-0.10695 -1.0344,-0.54533 -1.50401,-0.90484 a 6.6340903,6.6340903 0 0 0 -3.87621,-1.35432 c -1.27607,-0.0241 -2.56407,0.3217 -3.81737,0.0804 0.0819,0.45544 0.47162,0.79703 0.88743,1.00007 0.41582,0.20303 0.87474,0.3052 1.29257,0.5041 a 3.0861415,3.0861415 0 0 1 1.49488,1.55518 c 0.13457,0.31411 0.21923,0.65594 0.42307,0.93021 0.41664,0.5606 1.20636,0.6837 1.90332,0.63785 0.90869,-0.0597 1.85773,-0.32111 2.70311,0.0174 0.64671,0.25898 1.10957,0.82502 1.64955,1.26515 0.53998,0.44013 1.30055,0.76679 1.92059,0.44921 a 3.1749915,3.1749915 0 0 1 -2.19687,-3.05512 c 0.60815,0.0559 2.35972,0.0343 2.26539,-0.99904 -0.0799,-0.87572 -1.57526,-0.28265 -2.09746,-0.18813 z"
       id="path32" />
    <path
       inkscape:connector-curvature="0"
       style="fill:#e6e6e6;stroke-width:0.18594866"
       d="m 217.21878,209.75442 c 0.10798,-0.59222 0.69857,-1.1152 0.5146,-1.68839 -0.12723,-0.39638 -0.58682,-0.59209 -1.00301,-0.60186 -0.41619,-0.01 -0.82506,0.1142 -1.24121,0.12587 a 6.0488931,6.0488931 0 0 0 -0.81274,0.0115 c -0.82607,0.13579 -1.33524,1.00163 -2.11373,1.30949 -0.47336,0.1872 -1.00515,0.15142 -1.49745,0.28083 -1.11754,0.29375 -1.82464,1.34977 -2.60583,2.20118 a 9.2993891,9.2993891 0 0 1 -4.72014,2.7527 c -0.6354,0.14713 -1.31846,0.24126 -1.82352,0.65393 -0.66882,0.54649 -0.83345,1.48334 -0.98226,2.33412 a 38.553254,38.553254 0 0 1 -1.87678,6.88955 l 2.65357,0.3388 c 0.50451,0.0644 1.02727,0.12745 1.51342,-0.022 a 4.3935187,4.3935187 0 0 0 0.99543,-0.53023 9.9375571,9.9375571 0 0 1 3.8825,-1.40145 c 0.69489,-0.0954 1.42344,-0.11288 2.07555,0.14542 0.65211,0.25829 1.21155,0.84404 1.2662,1.54331 a 1.630184,1.630184 0 0 1 1.62931,0.39625 2.8321041,2.8321041 0 0 1 0.77787,1.55287 c 0.0699,0.36303 0.13984,0.79802 0.47671,0.95032 0.27484,0.12425 0.59011,-0.01 0.89076,-0.0337 1.02021,-0.0816 1.86678,1.10794 2.86954,0.9031 1.07544,-0.2197 1.33946,-1.83032 2.38862,-2.15295 0.60259,-0.18529 1.4478,0.0401 1.73636,-0.52048 0.25432,-0.49403 -0.2531,-1.06415 -0.20077,-1.61734 0.0644,-0.68116 0.86789,-0.97028 1.48731,-1.26091 2.13543,-1.002 3.14876,-3.8761 2.11399,-5.99584 -0.61311,-1.25594 -1.81947,-2.24459 -2.04226,-3.62431 -0.1714,-1.06154 0.24706,-2.2994 -0.42976,-3.13497 -0.34431,-0.42505 -0.92723,-0.65968 -1.13211,-1.16686 -0.12895,-0.31926 -0.0771,-0.68149 -0.14653,-1.01873 -0.0694,-0.33725 -0.36362,-0.69002 -0.69666,-0.60261 -0.96672,0.25375 -1.27522,3.24013 -1.79278,3.96573 -0.78679,1.10297 -2.40196,0.37644 -2.1542,-0.98248 z"
       id="path34" />
    <path
       inkscape:connector-curvature="0"
       style="fill:#e6e6e6;stroke-width:0.18594866"
       d="m 199.35018,203.75775 c -0.33036,-0.0926 -0.6911,-0.18388 -1.00764,-0.0515 -0.31654,0.13238 -0.50139,0.59713 -0.24734,0.82773 1.98751,-0.0774 3.98718,-0.15431 5.9578,0.1156 2.27046,0.31099 4.51745,1.08129 6.79787,0.85467 a 34.596419,34.596419 0 0 0 -3.96555,-0.92019 l -2.23248,-0.42647 a 17.261684,17.261684 0 0 0 -1.81285,-0.28012 c -1.27361,-0.10518 -2.23758,0.23142 -3.48981,-0.11971 z"
       id="path36" />
    <path
       inkscape:connector-curvature="0"
       style="fill:#e6e6e6;stroke-width:0.18594866"
       d="m 201.3399,196.83564 c -0.165,-0.0138 -0.36936,-0.0257 -0.45471,0.11622 -0.0815,0.13554 0.0118,0.31463 -0.032,0.46662 -0.06,0.20764 -0.33184,0.26069 -0.54611,0.23242 -0.21425,-0.0283 -0.44598,-0.096 -0.6358,0.007 a 0.53889409,0.53889409 0 0 0 -0.20836,0.61211 1.5758349,1.5758349 0 0 0 0.36749,0.58581 5.984739,5.984739 0 0 0 0.9535,0.9564 c 0.68309,0.50422 1.60853,0.74721 2.03876,1.47916 a 0.981437,0.981437 0 0 0 0.27229,0.36647 c 0.20654,0.13083 0.4759,0.0313 0.69828,-0.0703 l 0.77949,-0.35616 a 0.88542241,0.88542241 0 0 0 0.3644,-0.24783 c 0.17809,-0.24164 0.0687,-0.5852 -0.0808,-0.84551 -0.14947,-0.26031 -0.34081,-0.52971 -0.30873,-0.82816 0.0572,-0.53213 0.74138,-0.73568 1.02271,-1.19096 0.28358,-0.45892 0.099,-1.05023 0.13165,-1.58875 0.0382,-0.62976 0.43397,-1.44893 -0.2027,-1.91946 -0.54109,-0.39989 -1.05827,-0.0304 -1.44675,0.4111 -0.81923,0.931 -1.2066,1.93926 -2.71258,1.81349 z"
       id="path38" />
    <path
       inkscape:connector-curvature="0"
       style="fill:#e6e6e6;stroke-width:0.18594866"
       d="m 206.07147,187.42609 c 0.26612,0.50954 0.82091,0.81362 1.11111,1.30986 0.31455,0.53786 0.27871,1.23281 0.61995,1.75415 0.35011,0.53489 1.05466,0.81887 1.25101,1.42724 0.21435,0.6642 -0.27201,1.47148 0.11569,2.05182 a 0.86130301,0.86130301 0 0 0 1.26342,0.11608 0.92675136,0.92675136 0 0 0 -0.0382,-1.29301 c -0.22954,-0.20929 -0.55915,-0.29972 -0.7508,-0.54418 a 1.1419107,1.1419107 0 0 1 -0.19446,-0.47347 3.0996656,3.0996656 0 0 1 0.0488,-1.48558 0.66109397,0.66109397 0 0 0 0.0374,-0.38858 c -0.0863,-0.25079 -0.42587,-0.26859 -0.66421,-0.38493 -0.54133,-0.26425 -0.52819,-1.02821 -0.43362,-1.62313 -0.063,0.39607 -1.4738,-0.27757 -1.62153,-0.50192 -0.29349,-0.44569 -0.13376,-1.30541 -0.19186,-1.79791 -0.63361,0.30531 -0.87795,1.21055 -0.55258,1.83356 z"
       id="path40" />
    <path
       inkscape:connector-curvature="0"
       style="fill:#e6e6e6;stroke-width:0.18594866"
       d="m 191.85814,195.26603 c -0.2604,-0.29151 -0.65262,-0.59647 -1.00173,-0.42067 -0.26635,0.13413 -0.33962,0.50266 -0.23523,0.782 a 1.7212951,1.7212951 0 0 0 0.56806,0.67723 c 0.72754,0.60002 1.51097,1.14156 2.14566,1.83905 1.13584,1.24821 1.73754,2.93248 2.97281,4.08237 a 1.667383,1.667383 0 0 0 0.93607,0.5066 c 0.35988,0.0335 0.76402,-0.19688 0.80539,-0.55595 0.0341,-0.29578 -0.17212,-0.56051 -0.37363,-0.77969 -0.47984,-0.52194 -1.00516,-1.00238 -1.45819,-1.54775 a 1.3005342,1.3005342 0 0 1 -0.37273,-0.77843 c -0.002,-0.29365 0.26548,-0.601 0.54999,-0.52828 -0.34602,-0.0884 -0.60263,-0.66491 -1.11048,-0.77328 -0.42442,-0.0906 -0.52709,0.1722 -1.03219,-0.0444 -0.96335,-0.41318 -1.71916,-1.70354 -2.3938,-2.45877 z"
       id="path42" />
    <path
       inkscape:connector-curvature="0"
       style="fill:#e6e6e6;stroke-width:0.18594866"
       d="m 214.49406,166.88161 a 7.9770653,7.9770653 0 0 1 -0.81385,-0.29073 c -0.71528,-0.2147 -1.66166,0.31104 -1.56632,1.05173 0.0633,0.49212 0.52136,0.82392 0.77429,1.25079 0.3751,0.63304 0.2751,1.43597 0.078,2.1449 a 1.6767678,1.6767678 0 0 1 -0.27063,0.61028 2.0669644,2.0669644 0 0 1 -0.64094,0.46106 8.5728041,8.5728041 0 0 0 -2.50844,2.13105 0.61416982,0.61416982 0 0 0 -0.15148,0.28556 c -0.0341,0.25007 0.21727,0.43225 0.35939,0.64083 0.31569,0.46333 0.0875,1.08679 0.11873,1.64659 a 0.46554106,0.46554106 0 0 0 0.19615,0.40845 c 0.19028,0.0966 0.41576,-0.0675 0.51889,-0.25438 0.34226,-0.62008 0.0844,-1.61541 0.7265,-1.91439 0.12146,-0.0566 0.2687,-0.0804 0.34973,-0.18708 0.12855,-0.16926 0.004,-0.41987 0.0696,-0.62217 0.0978,-0.30374 0.51325,-0.31737 0.83207,-0.3039 a 4.7226403,4.7226403 0 0 0 1.62224,-0.21598 1.0798504,1.0798504 0 0 0 0.53702,-0.31097 c 0.19194,-0.23954 0.17493,-0.58013 0.13658,-0.88468 a 11.992247,11.992247 0 0 0 -1.41685,-4.32324 c 0.56401,0.0721 1.17763,0.13445 1.66433,-0.15949 0.27252,-0.16459 0.59935,-0.6568 0.46418,-0.99181 -0.21377,-0.52979 -0.59991,-0.0839 -1.07924,-0.17242 z"
       id="path44" />
    <path
       inkscape:connector-curvature="0"
       style="fill:#e6e6e6;stroke-width:0.18594866"
       d="m 142.18812,175.23192 c 0.0675,0.362 0.13385,0.74318 0.0152,1.0918 -0.11863,0.34861 -0.49184,0.63989 -0.84425,0.53307 -0.2735,-0.0829 -0.43149,-0.3579 -0.6257,-0.56756 -1.08001,-1.16595 -3.5167,-0.4909 -4.18388,-1.93338 -0.2723,-0.58871 -0.0873,-1.29402 -0.27298,-1.91547 a 1.7049372,1.7049372 0 0 0 -1.72658,-1.17294 3.5478725,3.5478725 0 0 0 -0.99357,0.29659 25.052219,25.052219 0 0 1 -6.5828,1.64645 5.4086273,5.4086273 0 0 0 -1.26486,0.23014 c -0.92748,0.33624 -1.56119,1.19609 -2.01218,2.07352 -0.45099,0.87743 -0.78393,1.82734 -1.38857,2.60688 -0.63546,0.81927 -1.52591,1.39297 -2.35654,2.01351 a 2.4043366,2.4043366 0 0 0 -0.77739,0.81477 c -0.18008,0.36969 -0.16992,0.7997 -0.15594,1.21068 l 0.16976,4.99155 c 0.0219,0.64203 0.0493,1.30702 0.33661,1.88158 0.35883,0.71747 1.06768,1.18738 1.55944,1.82118 a 3.5671108,3.5671108 0 0 1 0.74002,2.27797 c -0.0105,0.33045 -0.0433,0.72129 0.21405,0.92882 a 0.94122563,0.94122563 0 0 0 0.5263,0.15136 l 6.7521,0.55263 c 1.18775,0.0972 2.50405,0.25704 3.2795,1.16195 0.36598,0.42707 0.65998,1.04123 1.22054,1.08705 0.24045,0.0197 0.47441,-0.079 0.71491,-0.0981 0.60676,-0.0481 1.13979,0.41247 1.47619,0.91972 a 4.0803551,4.0803551 0 0 1 0.65537,2.61825 c -0.0552,0.57863 -0.23455,1.14117 -0.27324,1.72114 -0.14716,2.2068 1.7236,4.12407 1.75985,6.33547 0.0213,1.30077 -0.59616,2.51613 -1.19818,3.6694 0.97164,1.47195 0.176,3.43203 0.56284,5.15282 0.36699,1.63256 1.72821,2.91062 2.06739,4.54918 0.15529,0.75013 0.16427,1.67324 0.82573,2.0596 a 1.882243,1.882243 0 0 0 0.93435,0.18708 12.317591,12.317591 0 0 0 5.60915,-1.27699 c 0.81792,-0.40588 1.66559,-1.0118 1.80843,-1.91364 0.1152,-0.72728 -0.25363,-1.54079 0.12172,-2.17428 0.44237,-0.74665 1.57564,-0.68746 2.22651,-1.2615 1.05593,-0.93128 0.23254,-2.70736 0.66036,-4.04871 0.38457,-1.20571 1.70838,-1.84626 2.36458,-2.92839 a 5.2038904,5.2038904 0 0 0 0.54948,-1.48924 21.243426,21.243426 0 0 0 0.55907,-3.79825 22.766882,22.766882 0 0 1 0.17184,-2.32649 c 0.70749,-4.3954 5.05283,-7.33864 6.46362,-11.56116 0.13474,-0.40326 0.19801,-0.94039 -0.16073,-1.16857 a 1.027411,1.027411 0 0 0 -0.68321,-0.0715 l -3.11257,0.39242 c -0.38661,0.0487 -0.7964,0.0943 -1.15144,-0.0663 -0.35505,-0.16057 -0.6095,-0.60972 -0.42118,-0.95085 0.52866,-0.95758 -0.5588,-2.16765 -1.04192,-3.149 a 46.467475,46.467475 0 0 0 -4.62725,-7.50426 0.76277255,0.76277255 0 0 1 -0.20287,-0.44048 l 0.88338,0.0294 c -0.29819,-1.07002 -0.7903,-2.24094 -1.82985,-2.63236 -0.58578,-0.22056 -1.23449,-0.1443 -1.85949,-0.11015 -1.79015,0.0978 -3.70935,-0.17248 -5.48113,-0.44644 z"
       id="path46" />
    <path
       inkscape:connector-curvature="0"
       style="fill:#e6e6e6;stroke-width:0.18594866"
       d="m 147.67071,151.11889 c 0.46844,0.49746 0.99337,1.02489 1.67115,1.1116 1.19714,0.15316 2.05788,-1.0848 2.60588,-2.16009 a 1.055478,1.055478 0 0 0 1.1014,0.97645 2.1742549,2.1742549 0 0 0 0.8284,-0.32387 16.319872,16.319872 0 0 1 7.73155,-1.99866 0.83496151,0.83496151 0 0 1 0.63761,-0.91791 c 0.54956,-0.10895 1.04459,0.36617 1.3097,0.85974 0.2651,0.49356 0.4304,1.06563 0.85159,1.43507 0.42119,0.36944 1.23665,0.35334 1.40301,-0.18164 0.15972,-0.51361 -0.37534,-0.9516 -0.81987,-1.25441 -0.44454,-0.30281 -0.91309,-0.86325 -0.61374,-1.31012 2.27105,-0.50271 4.55619,-1.00732 6.88007,-1.10725 a 2.8810587,2.8810587 0 0 0 1.15811,-0.1995 c 0.3544,-0.17391 0.63608,-0.56869 0.54078,-0.95179 a 2.6225809,2.6225809 0 0 1 -2.73683,-1.0323 c 3.22454,-0.26609 6.65418,-0.49289 9.51186,1.02438 0.34292,0.73617 -1.40484,1.34866 -0.93722,2.01265 0.14914,0.21177 0.44799,0.2366 0.70696,0.24141 1.98583,0.0369 3.98313,0.073 5.94655,-0.22679 0.71751,-0.10956 1.44225,-0.26423 2.16263,-0.17539 1.19987,0.14798 2.22612,0.94858 3.40657,1.2096 0.48046,0.10625 1.01918,0.10984 1.42419,-0.16961 0.40501,-0.27945 0.5791,-0.91575 0.2472,-1.27904 1.11144,-1.0893 2.95609,-0.81932 4.42236,-0.29781 1.46626,0.5215 2.85532,1.36252 4.40722,1.47877 1.11285,0.0834 2.24117,-0.21599 3.3408,-0.0257 0.69101,0.11956 1.33412,0.42697 2.00949,0.61584 1.27734,0.3572 2.62855,0.2818 3.95479,0.29899 a 27.710404,27.710404 0 0 1 9.875,1.96222 2.9359936,2.9359936 0 0 1 1.09778,0.64859 c 0.29256,0.3133 0.44176,0.80014 0.24512,1.18104 l -3.24902,-0.47473 c 0.30612,0.60263 1.09808,0.70532 1.74122,0.91322 0.64316,0.20788 1.30999,0.91813 0.92348,1.47263 -0.69685,-0.22188 -1.32835,0.47483 -1.68035,1.11587 -0.35202,0.64103 -0.781,1.40874 -1.51128,1.44779 -0.65394,0.035 -1.44482,-0.52185 -1.87108,-0.0247 a 12.761385,12.761385 0 0 1 1.50348,2.40369 c 0.42112,0.87733 0.72107,1.98279 0.15189,2.77214 a 0.71850562,0.71850562 0 0 1 -0.38414,0.29789 c -0.46485,0.11768 -0.76689,-0.451 -1.10026,-0.79567 -0.42009,-0.43435 -1.05539,-0.55737 -1.62426,-0.76108 -0.56888,-0.2037 -1.16815,-0.60441 -1.21266,-1.20703 -0.0277,-0.37492 0.17026,-0.72346 0.31607,-1.06998 a 4.1224,4.1224 0 0 0 0.31322,-1.849 c -0.0319,-0.50861 -0.17454,-1.03768 -0.53981,-1.39305 -0.36527,-0.35537 -0.99592,-0.46811 -1.38805,-0.14262 -0.18298,0.15186 -0.32962,0.39479 -0.56722,0.40387 -0.41985,0.0161 -0.7422,-0.71589 -1.07997,-0.46604 a 1.1476918,1.1476918 0 0 1 -0.15596,0.76758 c -1.00796,0.87663 -2.55642,0.50577 -3.85587,0.81544 a 7.2373746,7.2373746 0 0 0 -1.7592,0.76827 1.1319011,1.1319011 0 0 0 -0.50284,0.42207 c -0.1622,0.31521 0.0167,0.71891 0.30254,0.9285 a 2.4018393,2.4018393 0 0 0 0.99754,0.34048 c 1.58419,0.30004 3.19148,0.76449 4.4422,1.78203 1.25073,1.01754 2.07091,2.69958 1.67513,4.26261 l -3.1241,-2.98515 q 0.17799,1.8801 0.20201,3.77055 a 1.6951898,1.6951898 0 0 1 -0.099,0.72526 c -0.22272,0.49192 -0.82635,0.65745 -1.3553,0.76604 a 1.0616199,1.0616199 0 0 0 -0.81498,1.36017 c 0.18794,0.61257 0.65654,1.09017 1.0856,1.56605 0.42907,0.47588 0.8513,1.01675 0.90747,1.65503 0.0562,0.63829 -0.42539,1.35774 -1.0646,1.31335 -0.48457,-0.0337 -0.84407,-0.46743 -1.05076,-0.907 -0.20669,-0.43956 -0.32967,-0.92924 -0.64022,-1.30273 -0.93997,-1.13049 -3.05123,-0.64614 -3.89329,-1.85133 a 1.9043486,1.9043486 0 0 0 -0.3938,1.81226 c 0.39174,-0.24524 0.92802,-0.0174 1.22235,0.33895 0.29432,0.35633 0.43318,0.81318 0.66431,1.21339 0.3119,0.54006 0.80828,1.01882 0.85181,1.64095 a 5.3637486,5.3637486 0 0 0 0.0119,0.70573 c 0.0773,0.37696 0.39595,0.64762 0.61686,0.9627 0.51402,0.73315 0.48862,1.74031 0.15731,2.57215 -0.33131,0.83184 -0.92653,1.52692 -1.51608,2.20082 -1.02974,1.17705 -2.08049,2.34721 -3.30128,3.32469 -0.34834,0.27892 -0.7201,0.55318 -0.93705,0.94314 -0.21696,0.38994 -0.22808,0.9373 0.1053,1.23392 -0.23855,0.0119 -0.66635,0.12928 -0.9049,0.14123 a 21.038471,21.038471 0 0 1 -0.0545,-2.87797 c -0.94138,-0.45202 -1.95499,0.75851 -1.83351,1.79571 0.12148,1.03719 0.87166,1.86953 1.40577,2.76689 0.39059,0.65621 0.68086,1.42137 0.55046,2.17381 -0.1304,0.75245 -0.80206,1.44658 -1.56283,1.38022 -1.2101,-0.10556 -1.71626,-1.84276 -2.91456,-2.04158 a 0.48964187,0.48964187 0 0 0 -0.31537,0.0314 c -0.17788,0.0976 -0.2088,0.33563 -0.21879,0.53829 -0.049,0.99467 -0.0915,2.02887 0.29681,2.94593 0.56803,1.34161 2.03548,2.46841 1.72765,3.89242 -1.65826,-0.77083 -2.52043,-2.63046 -2.91189,-4.41673 -0.39146,-1.78627 -0.4567,-3.66152 -1.15841,-5.35018 -0.53284,0.68295 -1.6528,0.11838 -2.13964,-0.59809 -0.46155,-0.67924 -0.74572,-1.46499 -1.19352,-2.15338 -0.44779,-0.68839 -1.13378,-1.3048 -1.95413,-1.34265 -0.8601,-0.0397 -1.60604,0.55054 -2.26204,1.10823 -0.53942,0.45859 -1.09325,0.93522 -1.40856,1.56914 -0.45884,0.92247 -0.33881,2.00996 -0.36092,3.04 -0.0239,1.11358 -0.25991,2.28849 -1.01887,3.10372 -0.75897,0.81521 -2.15986,1.09916 -2.997,0.36445 -0.43705,-0.38358 -0.64865,-0.95667 -0.83714,-1.50677 a 73.76291,73.76291 0 0 1 -2.26635,-8.09081 c -0.14066,0.62488 -0.68937,1.43029 -1.21355,1.0622 a 1.0867211,1.0867211 0 0 1 -0.27959,-0.36023 c -0.97777,-1.6572 -2.7885,-2.65121 -4.61803,-3.24722 -1.82952,-0.596 -3.75441,-0.87401 -5.56365,-1.52903 a 14.092442,14.092442 0 0 1 -2.88614,-1.43764 2.2698883,2.2698883 0 0 0 -0.13871,2.32189 c 0.40133,0.71062 1.3095,1.12177 2.0869,0.87338 0.40173,-0.12836 0.74099,-0.40724 1.13961,-0.54499 0.39861,-0.13774 0.93364,-0.0701 1.10794,0.31394 0.16684,0.3676 -0.0853,0.81228 0.0398,1.1961 0.19053,0.58456 1.07219,0.6296 1.38048,1.16155 0.22938,0.39578 0.0406,0.92136 -0.28687,1.24073 -0.32751,0.31936 -0.76449,0.49453 -1.16429,0.71685 -1.29721,0.72135 -2.21969,1.95274 -3.35338,2.91079 -1.13369,0.95805 -2.7332,1.65752 -4.08429,1.04299 0.32205,-1.6308 -1.62055,-2.82808 -1.97792,-4.45151 -0.11763,-0.53434 -0.0566,-1.10195 -0.22459,-1.62266 -0.24313,-0.75392 -0.91201,-1.27229 -1.46073,-1.84363 a 7.2355613,7.2355613 0 0 1 -1.9846,-5.26424 c 0.0297,-0.67094 0.15291,-1.3528 6e-5,-2.00677 -0.15285,-0.65397 -0.69429,-1.28694 -1.36523,-1.2573 -1.53242,0.0677 -3.46294,0.18167 -4.26693,-1.12465 -0.28695,-0.46623 -0.41182,-1.14908 0.003,-1.50628 0.29267,-0.25198 0.72468,-0.22824 1.10902,-0.19043 l 3.45275,0.33965 c 0.80755,0.0794 1.68049,0.145 2.37347,-0.27717 0.69297,-0.42218 0.99324,-1.54282 0.35158,-2.03951 -0.46885,-0.36292 -1.30884,-0.34324 -1.44513,-0.92026 -0.1135,-0.48057 0.41841,-1.02583 0.13113,-1.42744 -0.20599,-0.28798 -0.66911,-0.20808 -0.94974,0.008 -0.28063,0.21588 -0.48424,0.53157 -0.79831,0.69502 -0.55095,0.28674 -1.20926,0.0138 -1.80201,-0.17161 -0.59276,-0.18547 -1.38742,-0.20122 -1.67493,0.34933 -0.32154,0.61571 0.28521,1.4225 -0.0339,2.03947 -0.4219,0.81571 -1.85067,0.35135 -2.44319,1.05299 -0.67991,0.80512 0.46266,2.00569 0.23336,3.03424 a 1.8888107,1.8888107 0 0 1 -1.86085,-0.10454 1.8074823,1.8074823 0 0 1 -0.78111,-1.68295 c 0.0568,-0.46269 0.29798,-0.935 0.13635,-1.37225 -0.13068,-0.35352 -0.48562,-0.56398 -0.81551,-0.74628 l -3.35531,-1.85411 c -0.31151,0.57788 0.0823,1.2943 0.57486,1.72834 0.49253,0.43404 1.10946,0.76094 1.43302,1.33217 a 1.7486184,1.7486184 0 0 1 -0.65799,2.30535 0.40365735,0.40365735 0 0 1 -0.33259,0.0581 0.46399769,0.46399769 0 0 1 -0.2157,-0.29006 c -0.59201,-1.51499 -1.48085,-3.00871 -2.90189,-3.80012 -1.42105,-0.79141 -3.46294,-0.6287 -4.39479,0.70447 -0.22134,0.31666 -0.36989,0.6776 -0.5627,1.01238 -1.02439,1.77866 -3.22052,2.62092 -5.27234,2.56591 a 1.0469709,1.0469709 0 0 1 -0.57516,-0.13516 c -0.33161,-0.22902 -0.31667,-0.715 -0.26591,-1.1148 l 0.21538,-1.69665 c 0.0432,-0.34069 0.10592,-0.71727 0.37557,-0.92995 0.38011,-0.2998 0.92845,-0.1106 1.41252,-0.11758 a 1.7900831,1.7900831 0 0 0 1.62482,-1.25396 2.0174184,2.0174184 0 0 0 -0.56166,-2.00625 c -0.22187,-0.20839 -0.51966,-0.47015 -0.40247,-0.75107 a 0.6208993,0.6208993 0 0 1 0.43542,-0.29321 c 0.86951,-0.2525 1.78827,-0.31868 2.64328,-0.61662 0.85501,-0.29793 1.6842,-0.90749 1.88668,-1.79 0.0621,-0.27044 0.0903,-0.59805 0.33322,-0.73214 a 0.99923599,0.99923599 0 0 1 0.38511,-0.0787 1.873905,1.873905 0 0 0 1.60738,-1.95354 c 0.40977,-0.28632 0.98386,-0.0757 1.38028,0.22883 0.39641,0.30454 0.74639,0.70689 1.22874,0.83816 0.89891,0.24465 1.76759,-0.55123 2.69919,-0.55492 0.39176,-0.001 0.79731,0.13697 1.16587,0.004 0.37364,-0.13465 0.59676,-0.50659 0.88352,-0.78136 0.28677,-0.27478 0.78992,-0.44237 1.05471,-0.14637 l -0.22548,-1.67019 a 3.2834554,3.2834554 0 0 0 2.67218,-0.48312 l -2.91418,-0.98465 a 0.63359402,0.63359402 0 0 1 -0.27251,-0.14571 c -0.21187,-0.22814 -0.001,-0.58365 0.17085,-0.84299 0.41215,-0.6204 0.48134,-1.64235 -0.19643,-1.95122 -0.46262,-0.21083 -0.99363,0.0422 -1.43766,0.28982 l -2.12699,1.18597 c -0.0676,0.4043 0.42682,0.63344 0.73319,0.90577 a 1.2293196,1.2293196 0 0 1 -0.80166,2.14803 1.5317874,1.5317874 0 0 1 0.27356,1.29867 l -1.43109,0.10292 a 0.62000117,0.62000117 0 0 1 -0.46416,-0.0906 c -0.15306,-0.13594 -0.1323,-0.37415 -0.16778,-0.57577 -0.0856,-0.48661 -0.56211,-0.82766 -1.04839,-0.91511 -0.48628,-0.0875 -0.98377,0.0247 -1.4653,0.13532 a 0.87451653,0.87451653 0 0 1 -0.62986,-0.0145 0.62895275,0.62895275 0 0 1 -0.24945,-0.31459 c -0.21112,-0.51187 -0.0138,-1.11353 0.32527,-1.55127 0.33906,-0.43774 0.80321,-0.75774 1.22007,-1.12216 a 7.1111548,7.1111548 0 0 0 2.11451,-3.27968 c 0.78781,-0.33009 1.60343,-0.77857 2.39124,-1.10866 a 7.3171632,7.3171632 0 0 1 3.93305,-0.76204 l 2.668,0.051 c 0.78991,0.0151 1.60119,0.0344 2.3316,0.33556 0.73042,0.30114 1.37221,0.95247 1.42264,1.74092 a 0.53440715,0.53440715 0 0 1 -0.17108,0.48856 0.6302767,0.6302767 0 0 1 -0.33731,0.076 c -0.73668,0.0259 -1.05078,0.20945 -1.78745,0.23533 z"
       id="path48" />
    <path
       inkscape:connector-curvature="0"
       style="fill:#e6e6e6;stroke-width:0.18594866"
       d="m 126.40498,159.48052 a 0.7807017,0.7807017 0 0 0 0.21288,-0.78519 1.4603441,1.4603441 0 0 0 -1.51211,0.28553 2.5493078,2.5493078 0 0 0 -0.40511,0.53555 c -0.35058,0.57198 -0.66067,1.25519 -0.4575,1.89456 a 0.53820794,0.53820794 0 0 0 0.24632,0.3369 0.64755691,0.64755691 0 0 0 0.2871,0.045 9.6249631,9.6249631 0 0 0 1.15541,-0.0711 c 0.23543,-0.0288 0.50888,-0.0953 0.59986,-0.31431 0.1196,-0.28792 -0.16988,-0.61377 -0.0855,-0.9139 a 0.99843087,0.99843087 0 0 1 0.24654,-0.35306 0.46675717,0.46675717 0 0 0 0.14539,-0.39185 c -0.0341,-0.14083 -0.2497,-0.22072 -0.32732,-0.0984"
       id="path50" />
    <path
       inkscape:connector-curvature="0"
       style="fill:#e6e6e6;stroke-width:0.18594866"
       d="m 128.40768,156.88405 a 3.2326728,3.2326728 0 0 0 -1.04702,-0.0657 0.45659507,0.45659507 0 0 0 -0.2231,0.0507 0.37223016,0.37223016 0 0 0 -0.13748,0.19909 0.98912041,0.98912041 0 0 0 0.57586,1.21214 1.2375367,1.2375367 0 0 1 0.3571,0.1435 c 0.29613,0.22976 0.10735,0.69938 0.16341,1.06997 0.063,0.41614 0.46576,0.76544 0.39191,1.17978 -0.0582,0.32643 -0.40683,0.58491 -0.35071,0.91171 0.0588,0.34227 0.49312,0.44511 0.83932,0.47252 a 1.0555506,1.0555506 0 0 0 0.59465,-0.0682 0.92075825,0.92075825 0 0 0 0.37517,-0.54332 3.4825692,3.4825692 0 0 0 0.17545,-1.31131 1.2434386,1.2434386 0 0 0 -0.14787,-0.57878 3.2314827,3.2314827 0 0 0 -0.34555,-0.39567 c -0.66328,-0.77154 0.0351,-1.92239 -1.22114,-2.27643 z"
       id="path52" />
    <circle
       style="fill:#e6e6e6;stroke-width:0.18594866"
       cx="71.128937"
       cy="162.07166"
       r="2.225441"
       id="circle58" />
    <circle
       style="fill:#e6e6e6;stroke-width:0.18594866"
       cx="91.234634"
       cy="209.65004"
       r="2.225441"
       id="circle60" />
    <circle
       style="fill:#e6e6e6;stroke-width:0.18594866"
       cx="176.49203"
       cy="161.76469"
       r="2.225441"
       id="circle62" />
    <circle
       style="fill:#e6e6e6;stroke-width:0.18594866"
       cx="215.62907"
       cy="217.32396"
       r="2.225441"
       id="circle64" />
    <circle
       style="fill:#e6e6e6;stroke-width:0.18594866"
       cx="142.95694"
       cy="193.68826"
       r="2.225441"
       id="circle66" />
    <g
       id="g5312"
       transform="translate(44.223214,-0.37797622)">
      <path
         id="path74"
         d="m 205.34788,118.62032 c 0,0 3.52181,10.02362 1.35454,11.56571 -2.16726,1.54209 7.31453,14.13586 7.31453,14.13586 l 11.37815,-3.08419 -6.23087,-10.53764 c 0,0 -0.81273,-10.53764 -0.81273,-12.07974 0,-1.54209 -13.00362,0 -13.00362,0 z"
         style="fill:#ffb8b8;stroke-width:0.38369802"
         inkscape:connector-curvature="0" />
      <path
         id="path76"
         d="m 205.34788,118.62032 c 0,0 3.52181,10.02362 1.35454,11.56571 -2.16726,1.54209 7.31453,14.13586 7.31453,14.13586 l 11.37815,-3.08419 -6.23087,-10.53764 c 0,0 -0.81273,-10.53764 -0.81273,-12.07974 0,-1.54209 -13.00362,0 -13.00362,0 z"
         style="opacity:0.1;stroke-width:0.38369802"
         inkscape:connector-curvature="0" />
      <path
         id="path80"
         d="m 208.68907,268.20342 v 4.11226 c 0,0 -4.62628,11.17835 0,11.17835 4.62627,0 8.2245,1.1584 8.2245,-0.38369 v -13.87885 z"
         style="fill:#eb6841;fill-opacity:1;stroke-width:0.38369802"
         inkscape:connector-curvature="0" />
      <path
         sodipodi:nodetypes="csccccsccccccccccc"
         id="path78"
         d="m 199.43652,190.07067 c 0,0 -1.02807,12.85078 0,19.53318 1.02807,6.6824 2.57016,25.18752 2.57016,25.18752 0,0 0,34.95414 5.65434,35.46817 5.65434,0.51403 9.7666,1.02807 10.28062,-1.02805 0.51404,-2.05613 -2.57015,-3.0842 -1.02806,-4.11225 1.5421,-1.02806 2.05613,-4.62629 0,-8.73854 -2.05612,-4.11225 1.52332,-45.56957 1.52332,-45.56957 l 8.24327,26.03638 c 0,0 1.02807,21.58931 2.05613,24.67349 1.02806,3.0842 -1.02806,8.73854 2.57015,9.25257 3.59823,0.51404 7.71048,-2.57015 9.7666,-3.59821 2.05613,-1.02807 -3.08418,-1.02807 -2.05612,-1.54208 1.02805,-0.51403 4.11225,-2.05612 3.08419,-2.57016 -1.02806,-0.51404 -2.05614,-25.18754 -2.05614,-25.18754 0,0 -2.82717,-52.68821 -6.4254,-54.74432 -3.59823,-2.05614 -5.91136,1.48542 -5.91136,1.48542 z"
         style="fill:#6a4a3c;fill-opacity:1;stroke-width:0.38369802"
         inkscape:connector-curvature="0" />
      <path
         id="path82"
         d="m 239.01694,268.19612 v 4.11225 c 0,0 4.62629,11.17836 0,11.17836 -4.62628,0 -8.22451,1.15837 -8.22451,-0.38371 v -13.87884 z"
         style="fill:#eb6841;fill-opacity:1;stroke-width:0.38369802"
         inkscape:connector-curvature="0" />
      <circle
         id="circle84"
         r="9.2525635"
         cy="116.82122"
         cx="212.54431"
         style="fill:#ffb8b8;stroke-width:0.38369802" />
      <path
         id="path86"
         d="m 209.71715,134.04128 c 0,0 2.57015,7.71046 6.6824,6.16837 l 4.11225,-1.54209 7.19644,49.34698 c 0,0 -5.65435,8.22451 -13.87884,3.08419 -8.2245,-5.14032 -4.11225,-57.05745 -4.11225,-57.05745 z"
         style="fill:#d0cde1;stroke-width:0.38369802"
         inkscape:connector-curvature="0" />
      <path
         sodipodi:nodetypes="ccsccscccc"
         id="path88"
         d="m 216.91358,132.49917 2.31314,-4.8833 c 0,0 13.62183,6.42541 15.67796,8.48151 2.05612,2.05611 2.05611,5.14032 2.05611,5.14032 l -5.03193,9.89375 c 0,0 2.46178,31.22875 2.46178,32.25681 0,1.02807 3.59823,6.68241 1.02806,4.62628 -2.57015,-2.05613 -3.08418,-4.11225 -5.1403,-1.02806 -2.05613,3.08419 -6.68242,6.6824 -6.68242,6.6824 z"
         style="fill:#eb6841;fill-opacity:1;stroke-width:0.38369802"
         inkscape:connector-curvature="0" />
      <path
         id="path90"
         d="m 234.90468,169.50941 -1.54208,14.39288 c 0,0 -9.25257,8.2245 -7.19644,8.73854 2.05612,0.51402 3.08417,-1.54209 3.08417,-1.54209 0,0 3.59821,3.59822 5.65434,1.54209 2.05612,-2.05616 7.19644,-21.58932 7.19644,-21.58932 z"
         style="fill:#ffb8b8;stroke-width:0.38369802"
         inkscape:connector-curvature="0" />
      <path
         id="path92"
         d="m 212.74143,103.74471 c -2.05118,-0.0733 -4.24625,-0.10961 -5.97569,0.99575 a 8.7483153,8.7483153 0 0 0 -2.0652,2.02166 c -1.68436,2.12932 -3.13974,4.8085 -2.51408,7.45041 l 0.72667,-0.28342 a 4.7583007,4.7583007 0 0 1 -0.45897,2.03877 c 0.10233,-0.29755 0.44503,0.18347 0.35328,0.48445 l -0.8005,2.62615 a 2.4724849,2.4724849 0 0 1 3.15314,1.88147 c 0.0915,-3.05028 0.40793,-6.548 2.88231,-8.33406 1.24783,-0.90071 2.82707,-1.17569 4.34652,-1.41985 1.40172,-0.22523 2.87118,-0.44005 4.2138,0.0214 1.34261,0.46146 2.48594,1.83458 2.18157,3.22127 0.61906,-0.21325 1.31144,0.21819 1.61738,0.79708 a 4.1868094,4.1868094 0 0 1 0.33122,1.9165 c 0.65989,0.46638 1.41088,-0.45971 1.67983,-1.22169 0.63128,-1.78863 1.19239,-3.69261 0.85231,-5.55863 -0.34007,-1.86602 -1.86064,-3.64933 -3.75741,-3.65566 a 1.3170435,1.3170435 0 0 0 0.34252,-0.92722 l -1.56336,-0.1321 a 1.7278805,1.7278805 0 0 0 1.0325,-0.54436 c -0.62769,0.69065 -5.56281,-1.34165 -6.57784,-1.37793 z"
         style="fill:#6a4a3c;fill-opacity:1;stroke-width:0.38369802"
         inkscape:connector-curvature="0" />
      <path
         id="path94"
         d="m 212.2873,130.95708 c 0,0 -4.18453,-4.10058 -5.69049,-3.84941 -1.50595,0.25118 -3.56208,3.84941 -3.56208,3.84941 0,0 -12.33674,4.11224 -11.82271,8.22449 0.51403,4.11225 6.16837,24.15947 6.16837,24.15947 0,0 4.62629,24.15947 0.51404,26.72963 -4.11225,2.57016 19.53319,9.25255 20.04721,6.16838 0.51404,-3.0842 1.54208,-33.92607 0,-38.55236 -1.54208,-4.62627 -5.65434,-26.72961 -5.65434,-26.72961 z"
         style="fill:#eb6841;fill-opacity:1;stroke-width:0.38369802"
         inkscape:connector-curvature="0" />
      <path
         sodipodi:nodetypes="ccsssccc"
         style="fill:#ffb8b8;stroke-width:0.35011145"
         inkscape:connector-curvature="0"
         id="path96"
         d="m 195.8383,174.25945 6.21472,2.97349 c 0,0 10.36503,1.73592 11.98553,-3.46911 0.91483,-2.9384 -4.68262,0.61495 -4.90173,-0.59026 -0.20882,-1.14857 4.6355,-3.11312 1.66341,-2.9805 -2.99404,0.13357 -10.0178,1.09284 -10.0178,1.09284 l -2.72485,-1.42616 z" />
      <path
         sodipodi:nodetypes="cccscc"
         id="path98"
         d="m 230.2784,139.18157 h 6.35599 c 0,0 4.43866,19.5332 4.95269,21.58932 0.51404,2.05613 1.54208,11.82272 1.02807,11.82272 -0.51403,0 -8.55448,-2.77298 -8.55448,-1.2309 z"
         style="fill:#eb6841;fill-opacity:1;stroke-width:0.38369802"
         inkscape:connector-curvature="0" />
      <path
         sodipodi:nodetypes="cccsccccc"
         id="path100"
         d="m 197.38039,136.09738 -6.14597,2.42696 -4.64867,26.3588 c 0,0 -1.54208,7.19643 1.02808,7.71047 2.57014,0.51403 9.76658,4.62626 9.76658,4.62626 0,0 1.02806,-7.71046 3.08419,-7.71046 l -5.14031,-4.11226 3.08416,-17.99107 z"
         style="fill:#eb6841;fill-opacity:1;stroke-width:0.38369802"
         inkscape:connector-curvature="0" />
    </g>
  </g>
</svg>
